<mxfile host="app.diagrams.net" modified="2021-01-15T19:43:44.953Z" agent="5.0 (Windows)" etag="adkVuj2bEuSQB4O4dZRO" version="14.2.2" type="github">
  <diagram id="C5RBs43oDa-KdzZeNtuy" name="Page-1">
    <mxGraphModel dx="685" dy="356" grid="1" gridSize="10" guides="1" tooltips="1" connect="1" arrows="1" fold="1" page="1" pageScale="1" pageWidth="827" pageHeight="1169" math="0" shadow="0">
      <root>
        <mxCell id="WIyWlLk6GJQsqaUBKTNV-0" />
        <mxCell id="WIyWlLk6GJQsqaUBKTNV-1" parent="WIyWlLk6GJQsqaUBKTNV-0" />
        <mxCell id="WIyWlLk6GJQsqaUBKTNV-3" value="PowerOn" style="rounded=1;whiteSpace=wrap;html=1;fontSize=12;glass=0;strokeWidth=1;shadow=0;" parent="WIyWlLk6GJQsqaUBKTNV-1" vertex="1">
          <mxGeometry x="389.94" y="10" width="120" height="40" as="geometry" />
        </mxCell>
        <mxCell id="BbhXEEFtvzZGR5gqHQGa-4" value="Calibrate" style="edgeStyle=orthogonalEdgeStyle;rounded=0;orthogonalLoop=1;jettySize=auto;html=1;exitX=0;exitY=0.5;exitDx=0;exitDy=0;entryX=1;entryY=0.5;entryDx=0;entryDy=0;" parent="WIyWlLk6GJQsqaUBKTNV-1" source="WIyWlLk6GJQsqaUBKTNV-6" target="WIyWlLk6GJQsqaUBKTNV-7" edge="1">
          <mxGeometry x="-0.4012" y="-10" relative="1" as="geometry">
            <mxPoint as="offset" />
          </mxGeometry>
        </mxCell>
        <mxCell id="WIyWlLk6GJQsqaUBKTNV-6" value="&lt;div&gt;Initial Selection&lt;/div&gt;" style="rhombus;whiteSpace=wrap;html=1;shadow=0;fontFamily=Helvetica;fontSize=12;align=center;strokeWidth=1;spacing=6;spacingTop=-4;" parent="WIyWlLk6GJQsqaUBKTNV-1" vertex="1">
          <mxGeometry x="399.94" y="210" width="100" height="80" as="geometry" />
        </mxCell>
        <mxCell id="WIyWlLk6GJQsqaUBKTNV-7" value="Calibrate Mems Magnetometer" style="rounded=1;whiteSpace=wrap;html=1;fontSize=12;glass=0;strokeWidth=1;shadow=0;" parent="WIyWlLk6GJQsqaUBKTNV-1" vertex="1">
          <mxGeometry x="179.94" y="230" width="120" height="40" as="geometry" />
        </mxCell>
        <mxCell id="nOwS5N5TdgPbAZJw5BMm-8" style="edgeStyle=orthogonalEdgeStyle;rounded=0;orthogonalLoop=1;jettySize=auto;html=1;exitX=0.5;exitY=1;exitDx=0;exitDy=0;entryX=0.5;entryY=0;entryDx=0;entryDy=0;" parent="WIyWlLk6GJQsqaUBKTNV-1" source="BbhXEEFtvzZGR5gqHQGa-10" target="OIZMKwMvLClt6lRkhCav-0" edge="1">
          <mxGeometry relative="1" as="geometry">
            <mxPoint x="450" y="440" as="targetPoint" />
          </mxGeometry>
        </mxCell>
        <mxCell id="BbhXEEFtvzZGR5gqHQGa-10" value="&lt;div&gt;Configure&lt;/div&gt;&lt;div&gt;(Players, Difficulty)&lt;/div&gt;" style="rounded=1;whiteSpace=wrap;html=1;" parent="WIyWlLk6GJQsqaUBKTNV-1" vertex="1">
          <mxGeometry x="379.94" y="330" width="140" height="50" as="geometry" />
        </mxCell>
        <mxCell id="BbhXEEFtvzZGR5gqHQGa-11" value="Play" style="endArrow=classic;html=1;exitX=0.5;exitY=1;exitDx=0;exitDy=0;" parent="WIyWlLk6GJQsqaUBKTNV-1" source="WIyWlLk6GJQsqaUBKTNV-6" target="BbhXEEFtvzZGR5gqHQGa-10" edge="1">
          <mxGeometry x="-0.5" y="10" width="50" height="50" relative="1" as="geometry">
            <mxPoint x="489.94" y="450" as="sourcePoint" />
            <mxPoint x="539.94" y="400" as="targetPoint" />
            <mxPoint as="offset" />
          </mxGeometry>
        </mxCell>
        <mxCell id="nOwS5N5TdgPbAZJw5BMm-2" value="wait For CenterPress" style="rounded=1;whiteSpace=wrap;html=1;" parent="WIyWlLk6GJQsqaUBKTNV-1" vertex="1">
          <mxGeometry x="213.5" y="500" width="140" height="50" as="geometry" />
        </mxCell>
        <mxCell id="nOwS5N5TdgPbAZJw5BMm-5" value="rotate Arrow" style="rounded=1;whiteSpace=wrap;html=1;" parent="WIyWlLk6GJQsqaUBKTNV-1" vertex="1">
          <mxGeometry x="223.5" y="580" width="120" height="50" as="geometry" />
        </mxCell>
        <mxCell id="nOwS5N5TdgPbAZJw5BMm-9" value="" style="endArrow=classic;html=1;exitX=0.5;exitY=1;exitDx=0;exitDy=0;" parent="WIyWlLk6GJQsqaUBKTNV-1" source="nOwS5N5TdgPbAZJw5BMm-2" target="nOwS5N5TdgPbAZJw5BMm-5" edge="1">
          <mxGeometry width="50" height="50" relative="1" as="geometry">
            <mxPoint x="133.5" y="610" as="sourcePoint" />
            <mxPoint x="183.5" y="560" as="targetPoint" />
          </mxGeometry>
        </mxCell>
        <mxCell id="nOwS5N5TdgPbAZJw5BMm-11" value="&lt;div&gt;pressed&lt;/div&gt;" style="text;html=1;strokeColor=none;fillColor=none;align=center;verticalAlign=middle;whiteSpace=wrap;rounded=0;" parent="WIyWlLk6GJQsqaUBKTNV-1" vertex="1">
          <mxGeometry x="233.5" y="550" width="40" height="20" as="geometry" />
        </mxCell>
        <mxCell id="nOwS5N5TdgPbAZJw5BMm-12" value="check Rotation?" style="rhombus;whiteSpace=wrap;html=1;" parent="WIyWlLk6GJQsqaUBKTNV-1" vertex="1">
          <mxGeometry x="243.5" y="765" width="80" height="80" as="geometry" />
        </mxCell>
        <mxCell id="nOwS5N5TdgPbAZJw5BMm-13" value="wait for Board Rotation - decrement Display Bars" style="rounded=1;whiteSpace=wrap;html=1;" parent="WIyWlLk6GJQsqaUBKTNV-1" vertex="1">
          <mxGeometry x="223.5" y="660" width="120" height="60" as="geometry" />
        </mxCell>
        <mxCell id="nOwS5N5TdgPbAZJw5BMm-14" value="" style="endArrow=classic;html=1;exitX=0.5;exitY=1;exitDx=0;exitDy=0;" parent="WIyWlLk6GJQsqaUBKTNV-1" source="nOwS5N5TdgPbAZJw5BMm-5" target="nOwS5N5TdgPbAZJw5BMm-13" edge="1">
          <mxGeometry width="50" height="50" relative="1" as="geometry">
            <mxPoint x="133.5" y="610" as="sourcePoint" />
            <mxPoint x="183.5" y="560" as="targetPoint" />
          </mxGeometry>
        </mxCell>
        <mxCell id="nOwS5N5TdgPbAZJw5BMm-16" value="store Calibration Data" style="rounded=1;whiteSpace=wrap;html=1;" parent="WIyWlLk6GJQsqaUBKTNV-1" vertex="1">
          <mxGeometry x="179.94" y="295" width="120" height="45" as="geometry" />
        </mxCell>
        <mxCell id="nOwS5N5TdgPbAZJw5BMm-17" value="" style="endArrow=classic;html=1;exitX=0.5;exitY=1;exitDx=0;exitDy=0;" parent="WIyWlLk6GJQsqaUBKTNV-1" source="WIyWlLk6GJQsqaUBKTNV-7" target="nOwS5N5TdgPbAZJw5BMm-16" edge="1">
          <mxGeometry width="50" height="50" relative="1" as="geometry">
            <mxPoint x="489.94" y="480" as="sourcePoint" />
            <mxPoint x="539.94" y="430" as="targetPoint" />
          </mxGeometry>
        </mxCell>
        <mxCell id="nOwS5N5TdgPbAZJw5BMm-18" value="" style="endArrow=classic;html=1;exitX=0.5;exitY=1;exitDx=0;exitDy=0;entryX=0.5;entryY=0;entryDx=0;entryDy=0;" parent="WIyWlLk6GJQsqaUBKTNV-1" source="nOwS5N5TdgPbAZJw5BMm-13" target="nOwS5N5TdgPbAZJw5BMm-12" edge="1">
          <mxGeometry width="50" height="50" relative="1" as="geometry">
            <mxPoint x="133.5" y="610" as="sourcePoint" />
            <mxPoint x="183.5" y="560" as="targetPoint" />
          </mxGeometry>
        </mxCell>
        <mxCell id="nOwS5N5TdgPbAZJw5BMm-20" value="Timed Out?" style="rhombus;whiteSpace=wrap;html=1;direction=south;" parent="WIyWlLk6GJQsqaUBKTNV-1" vertex="1">
          <mxGeometry x="363.5" y="765" width="80" height="80" as="geometry" />
        </mxCell>
        <mxCell id="nOwS5N5TdgPbAZJw5BMm-22" value="Wrong" style="text;html=1;strokeColor=none;fillColor=none;align=center;verticalAlign=middle;whiteSpace=wrap;rounded=0;" parent="WIyWlLk6GJQsqaUBKTNV-1" vertex="1">
          <mxGeometry x="313.5" y="780" width="40" height="20" as="geometry" />
        </mxCell>
        <mxCell id="nOwS5N5TdgPbAZJw5BMm-25" value="&lt;div&gt;Handle Fail &lt;br&gt;&lt;/div&gt;&lt;div&gt;(Check last person)&lt;/div&gt;" style="rhombus;whiteSpace=wrap;html=1;" parent="WIyWlLk6GJQsqaUBKTNV-1" vertex="1">
          <mxGeometry x="448.5" y="610" width="150" height="100" as="geometry" />
        </mxCell>
        <mxCell id="nOwS5N5TdgPbAZJw5BMm-27" value="Victory, of Remaining Person" style="rounded=1;whiteSpace=wrap;html=1;" parent="WIyWlLk6GJQsqaUBKTNV-1" vertex="1">
          <mxGeometry x="636.5" y="635" width="90" height="50" as="geometry" />
        </mxCell>
        <mxCell id="nOwS5N5TdgPbAZJw5BMm-31" style="edgeStyle=orthogonalEdgeStyle;rounded=0;orthogonalLoop=1;jettySize=auto;html=1;exitX=0.5;exitY=0;exitDx=0;exitDy=0;entryX=0.5;entryY=1;entryDx=0;entryDy=0;" parent="WIyWlLk6GJQsqaUBKTNV-1" source="nOwS5N5TdgPbAZJw5BMm-28" target="nOwS5N5TdgPbAZJw5BMm-25" edge="1">
          <mxGeometry relative="1" as="geometry">
            <mxPoint x="523.5" y="715" as="targetPoint" />
          </mxGeometry>
        </mxCell>
        <mxCell id="nOwS5N5TdgPbAZJw5BMm-28" value="Report Player Fail" style="rounded=1;whiteSpace=wrap;html=1;" parent="WIyWlLk6GJQsqaUBKTNV-1" vertex="1">
          <mxGeometry x="483.5" y="785" width="80" height="40" as="geometry" />
        </mxCell>
        <mxCell id="nOwS5N5TdgPbAZJw5BMm-30" value="" style="endArrow=classic;html=1;entryX=0;entryY=0.5;entryDx=0;entryDy=0;exitX=1;exitY=0.5;exitDx=0;exitDy=0;" parent="WIyWlLk6GJQsqaUBKTNV-1" source="nOwS5N5TdgPbAZJw5BMm-25" target="nOwS5N5TdgPbAZJw5BMm-27" edge="1">
          <mxGeometry width="50" height="50" relative="1" as="geometry">
            <mxPoint x="523.5" y="610" as="sourcePoint" />
            <mxPoint x="703.5" y="560" as="targetPoint" />
          </mxGeometry>
        </mxCell>
        <mxCell id="OIZMKwMvLClt6lRkhCav-10" value="Last" style="edgeLabel;html=1;align=center;verticalAlign=middle;resizable=0;points=[];" vertex="1" connectable="0" parent="nOwS5N5TdgPbAZJw5BMm-30">
          <mxGeometry x="-0.4323" y="-1" relative="1" as="geometry">
            <mxPoint y="-11" as="offset" />
          </mxGeometry>
        </mxCell>
        <mxCell id="nOwS5N5TdgPbAZJw5BMm-37" value="" style="endArrow=classic;html=1;exitX=1;exitY=0.5;exitDx=0;exitDy=0;" parent="WIyWlLk6GJQsqaUBKTNV-1" source="nOwS5N5TdgPbAZJw5BMm-12" target="nOwS5N5TdgPbAZJw5BMm-20" edge="1">
          <mxGeometry width="50" height="50" relative="1" as="geometry">
            <mxPoint x="343.5" y="750" as="sourcePoint" />
            <mxPoint x="393.5" y="700" as="targetPoint" />
          </mxGeometry>
        </mxCell>
        <mxCell id="nOwS5N5TdgPbAZJw5BMm-39" value="Yes" style="endArrow=classic;html=1;exitX=0.5;exitY=0;exitDx=0;exitDy=0;entryX=0;entryY=0.5;entryDx=0;entryDy=0;" parent="WIyWlLk6GJQsqaUBKTNV-1" source="nOwS5N5TdgPbAZJw5BMm-20" target="nOwS5N5TdgPbAZJw5BMm-28" edge="1">
          <mxGeometry x="-0.675" y="15" width="50" height="50" relative="1" as="geometry">
            <mxPoint x="343.5" y="750" as="sourcePoint" />
            <mxPoint x="393.5" y="700" as="targetPoint" />
            <mxPoint as="offset" />
          </mxGeometry>
        </mxCell>
        <mxCell id="nOwS5N5TdgPbAZJw5BMm-40" value="No" style="endArrow=classic;html=1;entryX=1;entryY=0.5;entryDx=0;entryDy=0;exitX=0;exitY=0.5;exitDx=0;exitDy=0;" parent="WIyWlLk6GJQsqaUBKTNV-1" source="nOwS5N5TdgPbAZJw5BMm-20" target="nOwS5N5TdgPbAZJw5BMm-13" edge="1">
          <mxGeometry x="-0.7778" y="-6" width="50" height="50" relative="1" as="geometry">
            <mxPoint x="343.5" y="625" as="sourcePoint" />
            <mxPoint x="393.5" y="575" as="targetPoint" />
            <Array as="points">
              <mxPoint x="403.5" y="690" />
            </Array>
            <mxPoint x="1" as="offset" />
          </mxGeometry>
        </mxCell>
        <mxCell id="nOwS5N5TdgPbAZJw5BMm-41" value="" style="endArrow=classic;html=1;" parent="WIyWlLk6GJQsqaUBKTNV-1" edge="1">
          <mxGeometry width="50" height="50" relative="1" as="geometry">
            <mxPoint x="680" y="635" as="sourcePoint" />
            <mxPoint x="450" y="190" as="targetPoint" />
            <Array as="points">
              <mxPoint x="680" y="190" />
            </Array>
          </mxGeometry>
        </mxCell>
        <mxCell id="nOwS5N5TdgPbAZJw5BMm-43" value="" style="endArrow=classic;html=1;exitX=0.5;exitY=1;exitDx=0;exitDy=0;" parent="WIyWlLk6GJQsqaUBKTNV-1" source="nOwS5N5TdgPbAZJw5BMm-12" target="nOwS5N5TdgPbAZJw5BMm-44" edge="1">
          <mxGeometry width="50" height="50" relative="1" as="geometry">
            <mxPoint x="176.5" y="765" as="sourcePoint" />
            <mxPoint x="283.5" y="905" as="targetPoint" />
          </mxGeometry>
        </mxCell>
        <mxCell id="nOwS5N5TdgPbAZJw5BMm-44" value="Text" style="text;html=1;strokeColor=none;fillColor=none;align=center;verticalAlign=middle;whiteSpace=wrap;rounded=0;" parent="WIyWlLk6GJQsqaUBKTNV-1" vertex="1">
          <mxGeometry x="263.5" y="895" width="40" height="20" as="geometry" />
        </mxCell>
        <mxCell id="nOwS5N5TdgPbAZJw5BMm-45" value="Correct" style="text;html=1;strokeColor=none;fillColor=none;align=center;verticalAlign=middle;whiteSpace=wrap;rounded=0;" parent="WIyWlLk6GJQsqaUBKTNV-1" vertex="1">
          <mxGeometry x="223.5" y="855" width="40" height="20" as="geometry" />
        </mxCell>
        <mxCell id="OIZMKwMvLClt6lRkhCav-0" value="calculate flash sequence" style="rounded=1;whiteSpace=wrap;html=1;" vertex="1" parent="WIyWlLk6GJQsqaUBKTNV-1">
          <mxGeometry x="389.94" y="420" width="120" height="60" as="geometry" />
        </mxCell>
        <mxCell id="OIZMKwMvLClt6lRkhCav-1" value="" style="endArrow=classic;html=1;exitX=0;exitY=0.5;exitDx=0;exitDy=0;entryX=0.5;entryY=0;entryDx=0;entryDy=0;" edge="1" parent="WIyWlLk6GJQsqaUBKTNV-1" source="OIZMKwMvLClt6lRkhCav-0" target="nOwS5N5TdgPbAZJw5BMm-2">
          <mxGeometry width="50" height="50" relative="1" as="geometry">
            <mxPoint x="390" y="730" as="sourcePoint" />
            <mxPoint x="440" y="680" as="targetPoint" />
            <Array as="points">
              <mxPoint x="284" y="450" />
            </Array>
          </mxGeometry>
        </mxCell>
        <mxCell id="OIZMKwMvLClt6lRkhCav-3" value="&lt;font style=&quot;font-size: 12px&quot;&gt;Calibration Data present&lt;/font&gt;" style="rhombus;html=1;spacing=2;whiteSpace=wrap;" vertex="1" parent="WIyWlLk6GJQsqaUBKTNV-1">
          <mxGeometry x="394.97" y="70" width="109.94" height="100" as="geometry" />
        </mxCell>
        <mxCell id="OIZMKwMvLClt6lRkhCav-4" value="" style="endArrow=classic;html=1;exitX=0.5;exitY=1;exitDx=0;exitDy=0;" edge="1" parent="WIyWlLk6GJQsqaUBKTNV-1" source="WIyWlLk6GJQsqaUBKTNV-3" target="OIZMKwMvLClt6lRkhCav-3">
          <mxGeometry width="50" height="50" relative="1" as="geometry">
            <mxPoint x="480" y="160" as="sourcePoint" />
            <mxPoint x="530" y="110" as="targetPoint" />
          </mxGeometry>
        </mxCell>
        <mxCell id="OIZMKwMvLClt6lRkhCav-5" value="Yes" style="endArrow=classic;html=1;exitX=0.5;exitY=1;exitDx=0;exitDy=0;" edge="1" parent="WIyWlLk6GJQsqaUBKTNV-1" source="OIZMKwMvLClt6lRkhCav-3" target="WIyWlLk6GJQsqaUBKTNV-6">
          <mxGeometry x="-0.5" y="10" width="50" height="50" relative="1" as="geometry">
            <mxPoint x="480" y="160" as="sourcePoint" />
            <mxPoint x="530" y="110" as="targetPoint" />
            <mxPoint as="offset" />
          </mxGeometry>
        </mxCell>
        <mxCell id="OIZMKwMvLClt6lRkhCav-7" value="" style="endArrow=classic;html=1;entryX=0.5;entryY=0;entryDx=0;entryDy=0;exitX=0;exitY=0.5;exitDx=0;exitDy=0;" edge="1" parent="WIyWlLk6GJQsqaUBKTNV-1" source="OIZMKwMvLClt6lRkhCav-3" target="WIyWlLk6GJQsqaUBKTNV-7">
          <mxGeometry width="50" height="50" relative="1" as="geometry">
            <mxPoint x="410" y="160" as="sourcePoint" />
            <mxPoint x="460" y="110" as="targetPoint" />
            <Array as="points">
              <mxPoint x="240" y="120" />
            </Array>
          </mxGeometry>
        </mxCell>
        <mxCell id="OIZMKwMvLClt6lRkhCav-11" value="&lt;div&gt;No&lt;/div&gt;" style="edgeLabel;html=1;align=center;verticalAlign=middle;resizable=0;points=[];" vertex="1" connectable="0" parent="OIZMKwMvLClt6lRkhCav-7">
          <mxGeometry x="-0.8795" y="-2" relative="1" as="geometry">
            <mxPoint x="0.97" y="-8" as="offset" />
          </mxGeometry>
        </mxCell>
        <mxCell id="OIZMKwMvLClt6lRkhCav-9" value="" style="endArrow=classic;html=1;exitX=1;exitY=0.5;exitDx=0;exitDy=0;" edge="1" parent="WIyWlLk6GJQsqaUBKTNV-1" source="nOwS5N5TdgPbAZJw5BMm-16">
          <mxGeometry width="50" height="50" relative="1" as="geometry">
            <mxPoint x="360" y="260" as="sourcePoint" />
            <mxPoint x="450" y="190" as="targetPoint" />
            <Array as="points">
              <mxPoint x="340" y="318" />
              <mxPoint x="340" y="200" />
              <mxPoint x="340" y="190" />
            </Array>
          </mxGeometry>
        </mxCell>
        <mxCell id="OIZMKwMvLClt6lRkhCav-12" value="Remaining" style="endArrow=classic;html=1;exitX=0.5;exitY=0;exitDx=0;exitDy=0;entryX=1;entryY=0.5;entryDx=0;entryDy=0;" edge="1" parent="WIyWlLk6GJQsqaUBKTNV-1" source="nOwS5N5TdgPbAZJw5BMm-25" target="nOwS5N5TdgPbAZJw5BMm-2">
          <mxGeometry x="-0.8418" y="-36" width="50" height="50" relative="1" as="geometry">
            <mxPoint x="400" y="550" as="sourcePoint" />
            <mxPoint x="450" y="500" as="targetPoint" />
            <Array as="points">
              <mxPoint x="524" y="525" />
            </Array>
            <mxPoint as="offset" />
          </mxGeometry>
        </mxCell>
      </root>
    </mxGraphModel>
  </diagram>
</mxfile>
